# Blender 5.2.2 LTS
# www.blender.org
mtllib open_map.mtl
o Plane
v 0.000000 0.000000 0.150000
v 0.000000 5.000000 0.150000
v -5.000000 0.000000 0.150000
v -5.000000 5.000000 0.150000
v 0.000000 0.000000 0.000000
v 0.000000 5.000000 0.000000
v -5.000000 0.000000 0.000000
v -5.000000 5.000000 0.000000
v -5.000000 5.150000 0.150000
v 0.000000 5.150000 0.150000
v -5.000000 5.150000 0.000000
v 0.000000 5.150000 0.000000
v 0.150000 0.000000 0.150000
v 0.150000 5.000000 0.150000
v 0.150000 0.000000 0.000000
v 0.150000 5.000000 0.000000
v 0.150000 5.150000 0.150000
v 0.150000 5.150000 0.000000
v 0.000000 0.000000 2.350000
v 0.000000 5.000000 2.350000
v -5.000000 5.000000 2.350000
v -5.000000 5.150000 2.350000
v 0.000000 5.150000 2.350000
v 0.150000 0.000000 2.350000
v 0.150000 5.000000 2.350000
v 0.150000 5.150000 2.350000
v -4.545455 5.000000 0.150000
v -4.090909 5.000000 0.150000
v -3.636364 5.000000 0.150000
v -3.181818 5.000000 0.150000
v -2.727273 5.000000 0.150000
v -2.272727 5.000000 0.150000
v -1.818182 5.000000 0.150000
v -1.363636 5.000000 0.150000
v -0.909091 5.000000 0.150000
v -0.454545 5.000000 0.150000
v -0.454545 0.000000 0.150000
v -0.909091 0.000000 0.150000
v -1.363636 0.000000 0.150000
v -1.818182 0.000000 0.150000
v -2.272727 0.000000 0.150000
v -2.727273 0.000000 0.150000
v -3.181818 0.000000 0.150000
v -3.636364 0.000000 0.150000
v -4.090909 0.000000 0.150000
v -4.545455 0.000000 0.150000
v -4.545455 5.000000 0.000000
v -4.090909 5.000000 0.000000
v -3.636364 5.000000 0.000000
v -3.181818 5.000000 0.000000
v -2.727273 5.000000 0.000000
v -2.272727 5.000000 0.000000
v -1.818182 5.000000 0.000000
v -1.363636 5.000000 0.000000
v -0.909091 5.000000 0.000000
v -0.454545 5.000000 0.000000
v -0.454545 0.000000 0.000000
v -0.909091 0.000000 0.000000
v -1.363636 0.000000 0.000000
v -1.818182 0.000000 0.000000
v -2.272727 0.000000 0.000000
v -2.727273 0.000000 0.000000
v -3.181818 0.000000 0.000000
v -3.636364 0.000000 0.000000
v -4.090909 0.000000 0.000000
v -4.545455 0.000000 0.000000
v -4.545455 5.150000 0.150000
v -4.090909 5.150000 0.150000
v -3.636364 5.150000 0.150000
v -3.181818 5.150000 0.150000
v -2.727273 5.150000 0.150000
v -2.272727 5.150000 0.150000
v -1.818182 5.150000 0.150000
v -1.363636 5.150000 0.150000
v -0.909091 5.150000 0.150000
v -0.454545 5.150000 0.150000
v -4.545455 5.150000 0.000000
v -4.090909 5.150000 0.000000
v -3.636364 5.150000 0.000000
v -3.181818 5.150000 0.000000
v -2.727273 5.150000 0.000000
v -2.272727 5.150000 0.000000
v -1.818182 5.150000 0.000000
v -1.363636 5.150000 0.000000
v -0.909091 5.150000 0.000000
v -0.454545 5.150000 0.000000
v -4.545455 5.000000 2.350000
v -4.090909 5.000000 2.350000
v -3.636364 5.000000 2.350000
v -3.181818 5.000000 2.350000
v -2.727273 5.000000 2.350000
v -2.272727 5.000000 2.350000
v -1.818182 5.000000 2.350000
v -1.363636 5.000000 2.350000
v -0.909091 5.000000 2.350000
v -0.454545 5.000000 2.350000
v -4.545455 5.150000 2.350000
v -4.090909 5.150000 2.350000
v -3.636364 5.150000 2.350000
v -3.181818 5.150000 2.350000
v -2.727273 5.150000 2.350000
v -2.272727 5.150000 2.350000
v -1.818182 5.150000 2.350000
v -1.363636 5.150000 2.350000
v -0.909091 5.150000 2.350000
v -0.454545 5.150000 2.350000
v 0.000000 0.454545 0.150000
v 0.000000 0.909091 0.150000
v 0.000000 1.363636 0.150000
v 0.000000 1.818182 0.150000
v 0.000000 2.272727 0.150000
v 0.000000 2.727273 0.150000
v 0.000000 3.181818 0.150000
v 0.000000 3.636364 0.150000
v 0.000000 4.090909 0.150000
v 0.000000 4.545455 0.150000
v -5.000000 0.454545 0.150000
v -5.000000 0.909091 0.150000
v -5.000000 1.363636 0.150000
v -5.000000 1.818182 0.150000
v -5.000000 2.272727 0.150000
v -5.000000 2.727273 0.150000
v -5.000000 3.181818 0.150000
v -5.000000 3.636364 0.150000
v -5.000000 4.090909 0.150000
v -5.000000 4.545455 0.150000
v 0.000000 0.454545 0.000000
v 0.000000 0.909091 0.000000
v 0.000000 1.363636 0.000000
v 0.000000 1.818182 0.000000
v 0.000000 2.272727 0.000000
v 0.000000 2.727273 0.000000
v 0.000000 3.181818 0.000000
v 0.000000 3.636364 0.000000
v 0.000000 4.090909 0.000000
v 0.000000 4.545455 0.000000
v -5.000000 0.454545 0.000000
v -5.000000 0.909091 0.000000
v -5.000000 1.363636 0.000000
v -5.000000 1.818182 0.000000
v -5.000000 2.272727 0.000000
v -5.000000 2.727273 0.000000
v -5.000000 3.181818 0.000000
v -5.000000 3.636364 0.000000
v -5.000000 4.090909 0.000000
v -5.000000 4.545455 0.000000
v 0.150000 0.454545 0.150000
v 0.150000 0.909091 0.150000
v 0.150000 1.363636 0.150000
v 0.150000 1.818182 0.150000
v 0.150000 2.272727 0.150000
v 0.150000 2.727273 0.150000
v 0.150000 3.181818 0.150000
v 0.150000 3.636364 0.150000
v 0.150000 4.090909 0.150000
v 0.150000 4.545455 0.150000
v 0.150000 0.454545 0.000000
v 0.150000 0.909091 0.000000
v 0.150000 1.363636 0.000000
v 0.150000 1.818182 0.000000
v 0.150000 2.272727 0.000000
v 0.150000 2.727273 0.000000
v 0.150000 3.181818 0.000000
v 0.150000 3.636364 0.000000
v 0.150000 4.090909 0.000000
v 0.150000 4.545455 0.000000
v 0.000000 0.454545 2.350000
v 0.000000 0.909091 2.350000
v 0.000000 1.363636 2.350000
v 0.000000 1.818182 2.350000
v 0.000000 2.272727 2.350000
v 0.000000 2.727273 2.350000
v 0.000000 3.181818 2.350000
v 0.000000 3.636364 2.350000
v 0.000000 4.090909 2.350000
v 0.000000 4.545455 2.350000
v 0.150000 0.454545 2.350000
v 0.150000 0.909091 2.350000
v 0.150000 1.363636 2.350000
v 0.150000 1.818182 2.350000
v 0.150000 2.272727 2.350000
v 0.150000 2.727273 2.350000
v 0.150000 3.181818 2.350000
v 0.150000 3.636364 2.350000
v 0.150000 4.090909 2.350000
v 0.150000 4.545455 2.350000
v -0.454545 0.454545 0.000000
v -0.454545 0.909091 0.000000
v -0.454545 1.363636 0.000000
v -0.454545 1.818182 0.000000
v -0.454545 2.272727 0.000000
v -0.454545 2.727273 0.000000
v -0.454545 3.181818 0.000000
v -0.454545 3.636364 0.000000
v -0.454545 4.090909 0.000000
v -0.454545 4.545455 0.000000
v -0.909091 0.454545 0.000000
v -0.909091 0.909091 0.000000
v -0.909091 1.363636 0.000000
v -0.909091 1.818182 0.000000
v -0.909091 2.272727 0.000000
v -0.909091 2.727273 0.000000
v -0.909091 3.181818 0.000000
v -0.909091 3.636364 0.000000
v -0.909091 4.090909 0.000000
v -0.909091 4.545455 0.000000
v -1.363636 0.454545 0.000000
v -1.363636 0.909091 0.000000
v -1.363636 1.363636 0.000000
v -1.363636 1.818182 0.000000
v -1.363636 2.272727 0.000000
v -1.363636 2.727273 0.000000
v -1.363636 3.181818 0.000000
v -1.363636 3.636364 0.000000
v -1.363636 4.090909 0.000000
v -1.363636 4.545455 0.000000
v -1.818182 0.454545 0.000000
v -1.818182 0.909091 0.000000
v -1.818182 1.363636 0.000000
v -1.818182 1.818182 0.000000
v -1.818182 2.272727 0.000000
v -1.818182 2.727273 0.000000
v -1.818182 3.181818 0.000000
v -1.818182 3.636364 0.000000
v -1.818182 4.090909 0.000000
v -1.818182 4.545455 0.000000
v -2.272727 0.454545 0.000000
v -2.272727 0.909091 0.000000
v -2.272727 1.363636 0.000000
v -2.272727 1.818182 0.000000
v -2.272727 2.272727 0.000000
v -2.272727 2.727273 0.000000
v -2.272727 3.181818 0.000000
v -2.272727 3.636364 0.000000
v -2.272727 4.090909 0.000000
v -2.272727 4.545455 0.000000
v -2.727273 0.454545 0.000000
v -2.727273 0.909091 0.000000
v -2.727273 1.363636 0.000000
v -2.727273 1.818182 0.000000
v -2.727273 2.272727 0.000000
v -2.727273 2.727273 0.000000
v -2.727273 3.181818 0.000000
v -2.727273 3.636364 0.000000
v -2.727273 4.090909 0.000000
v -2.727273 4.545455 0.000000
v -3.181818 0.454545 0.000000
v -3.181818 0.909091 0.000000
v -3.181818 1.363636 0.000000
v -3.181818 1.818182 0.000000
v -3.181818 2.272727 0.000000
v -3.181818 2.727273 0.000000
v -3.181818 3.181818 0.000000
v -3.181818 3.636364 0.000000
v -3.181818 4.090909 0.000000
v -3.181818 4.545455 0.000000
v -3.636364 0.454545 0.000000
v -3.636364 0.909091 0.000000
v -3.636364 1.363636 0.000000
v -3.636364 1.818182 0.000000
v -3.636364 2.272727 0.000000
v -3.636364 2.727273 0.000000
v -3.636364 3.181818 0.000000
v -3.636364 3.636364 0.000000
v -3.636364 4.090909 0.000000
v -3.636364 4.545455 0.000000
v -4.090909 0.454545 0.000000
v -4.090909 0.909091 0.000000
v -4.090909 1.363636 0.000000
v -4.090909 1.818182 0.000000
v -4.090909 2.272727 0.000000
v -4.090909 2.727273 0.000000
v -4.090909 3.181818 0.000000
v -4.090909 3.636364 0.000000
v -4.090909 4.090909 0.000000
v -4.090909 4.545455 0.000000
v -4.545455 0.454545 0.000000
v -4.545455 0.909091 0.000000
v -4.545455 1.363636 0.000000
v -4.545455 1.818182 0.000000
v -4.545455 2.272727 0.000000
v -4.545455 2.727273 0.000000
v -4.545455 3.181818 0.000000
v -4.545455 3.636364 0.000000
v -4.545455 4.090909 0.000000
v -4.545455 4.545455 0.000000
v -0.454545 4.545455 0.150000
v -0.454545 4.090909 0.150000
v -0.454545 3.636364 0.150000
v -0.454545 3.181818 0.150000
v -0.454545 2.727273 0.150000
v -0.454545 2.272727 0.150000
v -0.454545 1.818182 0.150000
v -0.454545 1.363636 0.150000
v -0.454545 0.909091 0.150000
v -0.454545 0.454545 0.150000
v -0.909091 4.545455 0.150000
v -0.909091 4.090909 0.150000
v -0.909091 3.636364 0.150000
v -0.909091 3.181818 0.150000
v -0.909091 2.727273 0.150000
v -0.909091 2.272727 0.150000
v -0.909091 1.818182 0.150000
v -0.909091 1.363636 0.150000
v -0.909091 0.909091 0.150000
v -0.909091 0.454545 0.150000
v -1.363636 4.545455 0.150000
v -1.363636 4.090909 0.150000
v -1.363636 3.636364 0.150000
v -1.363636 3.181818 0.150000
v -1.363636 2.727273 0.150000
v -1.363636 2.272727 0.150000
v -1.363636 1.818182 0.150000
v -1.363636 1.363636 0.150000
v -1.363636 0.909091 0.150000
v -1.363636 0.454545 0.150000
v -1.818182 4.545455 0.150000
v -1.818182 4.090909 0.150000
v -1.818182 3.636364 0.150000
v -1.818182 3.181818 0.150000
v -1.818182 2.727273 0.150000
v -1.818182 2.272727 0.150000
v -1.818182 1.818182 0.150000
v -1.818182 1.363636 0.150000
v -1.818182 0.909091 0.150000
v -1.818182 0.454545 0.150000
v -2.272727 4.545455 0.150000
v -2.272727 4.090909 0.150000
v -2.272727 3.636364 0.150000
v -2.272727 3.181818 0.150000
v -2.272727 2.727273 0.150000
v -2.272727 2.272727 0.150000
v -2.272727 1.818182 0.150000
v -2.272727 1.363636 0.150000
v -2.272727 0.909091 0.150000
v -2.272727 0.454545 0.150000
v -2.727273 4.545455 0.150000
v -2.727273 4.090909 0.150000
v -2.727273 3.636364 0.150000
v -2.727273 3.181818 0.150000
v -2.727273 2.727273 0.150000
v -2.727273 2.272727 0.150000
v -2.727273 1.818182 0.150000
v -2.727273 1.363636 0.150000
v -2.727273 0.909091 0.150000
v -2.727273 0.454545 0.150000
v -3.181818 4.545455 0.150000
v -3.181818 4.090909 0.150000
v -3.181818 3.636364 0.150000
v -3.181818 3.181818 0.150000
v -3.181818 2.727273 0.150000
v -3.181818 2.272727 0.150000
v -3.181818 1.818182 0.150000
v -3.181818 1.363636 0.150000
v -3.181818 0.909091 0.150000
v -3.181818 0.454545 0.150000
v -3.636364 4.545455 0.150000
v -3.636364 4.090909 0.150000
v -3.636364 3.636364 0.150000
v -3.636364 3.181818 0.150000
v -3.636364 2.727273 0.150000
v -3.636364 2.272727 0.150000
v -3.636364 1.818182 0.150000
v -3.636364 1.363636 0.150000
v -3.636364 0.909091 0.150000
v -3.636364 0.454545 0.150000
v -4.090909 4.545455 0.150000
v -4.090909 4.090909 0.150000
v -4.090909 3.636364 0.150000
v -4.090909 3.181818 0.150000
v -4.090909 2.727273 0.150000
v -4.090909 2.272727 0.150000
v -4.090909 1.818182 0.150000
v -4.090909 1.363636 0.150000
v -4.090909 0.909091 0.150000
v -4.090909 0.454545 0.150000
v -4.545455 4.545455 0.150000
v -4.545455 4.090909 0.150000
v -4.545455 3.636364 0.150000
v -4.545455 3.181818 0.150000
v -4.545455 2.727273 0.150000
v -4.545455 2.272727 0.150000
v -4.545455 1.818182 0.150000
v -4.545455 1.363636 0.150000
v -4.545455 0.909091 0.150000
v -4.545455 0.454545 0.150000
v -5.000000 5.000000 1.983333
v -5.000000 5.000000 1.616667
v -5.000000 5.000000 1.250000
v -5.000000 5.000000 0.883333
v -5.000000 5.000000 0.516667
v 0.000000 5.000000 0.516667
v 0.000000 5.000000 0.883333
v 0.000000 5.000000 1.250000
v 0.000000 5.000000 1.616667
v 0.000000 5.000000 1.983333
v 0.000000 0.000000 0.516667
v 0.000000 0.000000 0.883333
v 0.000000 0.000000 1.250000
v 0.000000 0.000000 1.616667
v 0.000000 0.000000 1.983333
v 0.000000 5.150000 0.516667
v 0.000000 5.150000 0.883333
v 0.000000 5.150000 1.250000
v 0.000000 5.150000 1.616667
v 0.000000 5.150000 1.983333
v 0.150000 5.150000 1.983333
v 0.150000 5.150000 1.616667
v 0.150000 5.150000 1.250000
v 0.150000 5.150000 0.883333
v 0.150000 5.150000 0.516667
v 0.150000 5.000000 0.516667
v 0.150000 5.000000 0.883333
v 0.150000 5.000000 1.250000
v 0.150000 5.000000 1.616667
v 0.150000 5.000000 1.983333
v 0.150000 0.000000 1.983333
v 0.150000 0.000000 1.616667
v 0.150000 0.000000 1.250000
v 0.150000 0.000000 0.883333
v 0.150000 0.000000 0.516667
v -5.000000 5.150000 0.516667
v -5.000000 5.150000 0.883333
v -5.000000 5.150000 1.250000
v -5.000000 5.150000 1.616667
v -5.000000 5.150000 1.983333
v -0.454545 5.150000 0.516667
v -0.454545 5.150000 0.883333
v -0.454545 5.150000 1.250000
v -0.454545 5.150000 1.616667
v -0.454545 5.150000 1.983333
v -0.909091 5.150000 0.516667
v -0.909091 5.150000 0.883333
v -0.909091 5.150000 1.250000
v -0.909091 5.150000 1.616667
v -0.909091 5.150000 1.983333
v -1.363636 5.150000 0.516667
v -1.363636 5.150000 0.883333
v -1.363636 5.150000 1.250000
v -1.363636 5.150000 1.616667
v -1.363636 5.150000 1.983333
v -1.818182 5.150000 0.516667
v -1.818182 5.150000 0.883333
v -1.818182 5.150000 1.250000
v -1.818182 5.150000 1.616667
v -1.818182 5.150000 1.983333
v -2.272727 5.150000 0.516667
v -2.272727 5.150000 0.883333
v -2.272727 5.150000 1.250000
v -2.272727 5.150000 1.616667
v -2.272727 5.150000 1.983333
v -2.727273 5.150000 0.516667
v -2.727273 5.150000 0.883333
v -2.727273 5.150000 1.250000
v -2.727273 5.150000 1.616667
v -2.727273 5.150000 1.983333
v -3.181818 5.150000 0.516667
v -3.181818 5.150000 0.883333
v -3.181818 5.150000 1.250000
v -3.181818 5.150000 1.616667
v -3.181818 5.150000 1.983333
v -3.636364 5.150000 0.516667
v -3.636364 5.150000 0.883333
v -3.636364 5.150000 1.250000
v -3.636364 5.150000 1.616667
v -3.636364 5.150000 1.983333
v -4.090909 5.150000 0.516667
v -4.090909 5.150000 0.883333
v -4.090909 5.150000 1.250000
v -4.090909 5.150000 1.616667
v -4.090909 5.150000 1.983333
v -4.545455 5.150000 0.516667
v -4.545455 5.150000 0.883333
v -4.545455 5.150000 1.250000
v -4.545455 5.150000 1.616667
v -4.545455 5.150000 1.983333
v -4.545455 5.000000 0.516667
v -4.545455 5.000000 0.883333
v -4.545455 5.000000 1.250000
v -4.545455 5.000000 1.616667
v -4.545455 5.000000 1.983333
v -4.090909 5.000000 0.516667
v -4.090909 5.000000 0.883333
v -4.090909 5.000000 1.250000
v -4.090909 5.000000 1.616667
v -4.090909 5.000000 1.983333
v -3.636364 5.000000 0.516667
v -3.636364 5.000000 0.883333
v -3.636364 5.000000 1.250000
v -3.636364 5.000000 1.616667
v -3.636364 5.000000 1.983333
v -3.181818 5.000000 0.516667
v -3.181818 5.000000 0.883333
v -3.181818 5.000000 1.250000
v -3.181818 5.000000 1.616667
v -3.181818 5.000000 1.983333
v -2.727273 5.000000 0.516667
v -2.727273 5.000000 0.883333
v -2.727273 5.000000 1.250000
v -2.727273 5.000000 1.616667
v -2.727273 5.000000 1.983333
v -2.272727 5.000000 0.516667
v -2.272727 5.000000 0.883333
v -2.272727 5.000000 1.250000
v -2.272727 5.000000 1.616667
v -2.272727 5.000000 1.983333
v -1.818182 5.000000 0.516667
v -1.818182 5.000000 0.883333
v -1.818182 5.000000 1.250000
v -1.818182 5.000000 1.616667
v -1.818182 5.000000 1.983333
v -1.363636 5.000000 0.516667
v -1.363636 5.000000 0.883333
v -1.363636 5.000000 1.250000
v -1.363636 5.000000 1.616667
v -1.363636 5.000000 1.983333
v -0.909091 5.000000 0.516667
v -0.909091 5.000000 0.883333
v -0.909091 5.000000 1.250000
v -0.909091 5.000000 1.616667
v -0.909091 5.000000 1.983333
v -0.454545 5.000000 0.516667
v -0.454545 5.000000 0.883333
v -0.454545 5.000000 1.250000
v -0.454545 5.000000 1.616667
v -0.454545 5.000000 1.983333
v 0.150000 0.454545 0.516667
v 0.150000 0.454545 0.883333
v 0.150000 0.454545 1.250000
v 0.150000 0.454545 1.616667
v 0.150000 0.454545 1.983333
v 0.150000 0.909091 0.516667
v 0.150000 0.909091 0.883333
v 0.150000 0.909091 1.250000
v 0.150000 0.909091 1.616667
v 0.150000 0.909091 1.983333
v 0.150000 1.363636 0.516667
v 0.150000 1.363636 0.883333
v 0.150000 1.363636 1.250000
v 0.150000 1.363636 1.616667
v 0.150000 1.363636 1.983333
v 0.150000 1.818182 0.516667
v 0.150000 1.818182 0.883333
v 0.150000 1.818182 1.250000
v 0.150000 1.818182 1.616667
v 0.150000 1.818182 1.983333
v 0.150000 2.272727 0.516667
v 0.150000 2.272727 0.883333
v 0.150000 2.272727 1.250000
v 0.150000 2.272727 1.616667
v 0.150000 2.272727 1.983333
v 0.150000 2.727273 0.516667
v 0.150000 2.727273 0.883333
v 0.150000 2.727273 1.250000
v 0.150000 2.727273 1.616667
v 0.150000 2.727273 1.983333
v 0.150000 3.181818 0.516667
v 0.150000 3.181818 0.883333
v 0.150000 3.181818 1.250000
v 0.150000 3.181818 1.616667
v 0.150000 3.181818 1.983333
v 0.150000 3.636364 0.516667
v 0.150000 3.636364 0.883333
v 0.150000 3.636364 1.250000
v 0.150000 3.636364 1.616667
v 0.150000 3.636364 1.983333
v 0.150000 4.090909 0.516667
v 0.150000 4.090909 0.883333
v 0.150000 4.090909 1.250000
v 0.150000 4.090909 1.616667
v 0.150000 4.090909 1.983333
v 0.150000 4.545455 0.516667
v 0.150000 4.545455 0.883333
v 0.150000 4.545455 1.250000
v 0.150000 4.545455 1.616667
v 0.150000 4.545455 1.983333
v 0.000000 4.545455 0.516667
v 0.000000 4.545455 0.883333
v 0.000000 4.545455 1.250000
v 0.000000 4.545455 1.616667
v 0.000000 4.545455 1.983333
v 0.000000 4.090909 0.516667
v 0.000000 4.090909 0.883333
v 0.000000 4.090909 1.250000
v 0.000000 4.090909 1.616667
v 0.000000 4.090909 1.983333
v 0.000000 3.636364 0.516667
v 0.000000 3.636364 0.883333
v 0.000000 3.636364 1.250000
v 0.000000 3.636364 1.616667
v 0.000000 3.636364 1.983333
v 0.000000 3.181818 0.516667
v 0.000000 3.181818 0.883333
v 0.000000 3.181818 1.250000
v 0.000000 3.181818 1.616667
v 0.000000 3.181818 1.983333
v 0.000000 2.727273 0.516667
v 0.000000 2.727273 0.883333
v 0.000000 2.727273 1.250000
v 0.000000 2.727273 1.616667
v 0.000000 2.727273 1.983333
v 0.000000 2.272727 0.516667
v 0.000000 2.272727 0.883333
v 0.000000 2.272727 1.250000
v 0.000000 2.272727 1.616667
v 0.000000 2.272727 1.983333
v 0.000000 1.818182 0.516667
v 0.000000 1.818182 0.883333
v 0.000000 1.818182 1.250000
v 0.000000 1.818182 1.616667
v 0.000000 1.818182 1.983333
v 0.000000 1.363636 0.516667
v 0.000000 1.363636 0.883333
v 0.000000 1.363636 1.250000
v 0.000000 1.363636 1.616667
v 0.000000 1.363636 1.983333
v 0.000000 0.909091 0.516667
v 0.000000 0.909091 0.883333
v 0.000000 0.909091 1.250000
v 0.000000 0.909091 1.616667
v 0.000000 0.909091 1.983333
v 0.000000 0.454545 0.516667
v 0.000000 0.454545 0.883333
v 0.000000 0.454545 1.250000
v 0.000000 0.454545 1.616667
v 0.000000 0.454545 1.983333
vn -0.0000 -0.0000 1.0000
vn -0.0000 -0.0000 -1.0000
vn -0.0000 -1.0000 -0.0000
vn -1.0000 -0.0000 -0.0000
vn -0.0000 1.0000 -0.0000
vn 1.0000 -0.0000 -0.0000
vt 0.385192 0.031240
vt 0.353952 0.031240
vt 0.353952 0.000000
vt 0.385192 0.000000
vt 0.031240 0.322712
vt 0.031240 0.353952
vt 0.000000 0.353952
vt 0.000000 0.322712
vt 0.031240 0.010309
vt 0.000000 0.010309
vt 0.000000 0.000000
vt 0.031240 0.000000
vt 0.343643 0.041550
vt 0.343643 0.010309
vt 0.353952 0.010309
vt 0.353952 0.041550
vt 0.505155 0.374883
vt 0.505155 0.343643
vt 0.515464 0.343643
vt 0.515464 0.374883
vt 0.666667 0.385192
vt 0.666667 0.353952
vt 0.676976 0.353952
vt 0.676976 0.385192
vt 0.828179 0.385192
vt 0.828179 0.353952
vt 0.838488 0.353952
vt 0.838488 0.385192
vt 0.702176 0.343643
vt 0.702176 0.353952
vt 0.676976 0.353952
vt 0.676976 0.343643
vt 0.666667 0.343643
vt 0.676976 0.343643
vt 0.343643 0.000000
vt 0.353952 0.000000
vt 0.989691 0.374883
vt 0.989691 0.343643
vt 1.000000 0.343643
vt 1.000000 0.374883
vt 0.989691 0.687285
vt 1.000000 0.687285
vt 1.000000 0.697595
vt 0.989691 0.697595
vt 0.379152 0.656045
vt 0.379152 0.687285
vt 0.353952 0.687285
vt 0.353952 0.656045
vt 0.540664 0.666354
vt 0.540664 0.697594
vt 0.515464 0.697594
vt 0.515464 0.666354
vt 0.828179 0.343643
vt 0.838488 0.343643
vt 0.505155 0.687285
vt 0.515464 0.687285
vt 0.515464 0.697594
vt 0.505155 0.697594
vt 0.312402 0.697594
vt 0.343643 0.697594
vt 0.343643 0.707904
vt 0.312402 0.707904
vt 0.343643 0.385192
vt 0.343643 0.353952
vt 0.353952 0.353952
vt 0.353952 0.385192
vt 0.353952 0.697594
vt 0.353952 0.707904
vt 0.863688 0.656045
vt 0.863688 0.687285
vt 0.838488 0.687285
vt 0.838488 0.656045
vt 0.379152 0.697594
vt 0.353952 0.697594
vt 0.702176 0.666354
vt 0.702176 0.697594
vt 0.676976 0.697594
vt 0.676976 0.666354
vt 0.540664 0.343643
vt 0.540664 0.353952
vt 0.515464 0.353952
vt 0.515464 0.343643
vt 0.863688 0.697594
vt 0.838488 0.697594
vt 0.702176 0.385192
vt 0.676976 0.385192
vt 0.702176 0.416432
vt 0.676976 0.416432
vt 0.702176 0.447673
vt 0.676976 0.447673
vt 0.702176 0.478913
vt 0.676976 0.478913
vt 0.702176 0.510153
vt 0.676976 0.510153
vt 0.702176 0.541393
vt 0.676976 0.541393
vt 0.702176 0.572634
vt 0.676976 0.572634
vt 0.702176 0.603874
vt 0.676976 0.603874
vt 0.702176 0.635114
vt 0.676976 0.635114
vt 0.000000 0.697594
vt 0.031240 0.697594
vt 0.031240 0.707904
vt 0.000000 0.707904
vt 0.062480 0.697594
vt 0.062480 0.707904
vt 0.093721 0.697594
vt 0.093721 0.707904
vt 0.124961 0.697594
vt 0.124961 0.707904
vt 0.156201 0.697594
vt 0.156201 0.707904
vt 0.187441 0.697594
vt 0.187441 0.707904
vt 0.218682 0.697594
vt 0.218682 0.707904
vt 0.249922 0.697594
vt 0.249922 0.707904
vt 0.281162 0.697594
vt 0.281162 0.707904
vt 0.540664 0.385192
vt 0.515464 0.385192
vt 0.540664 0.416432
vt 0.515464 0.416432
vt 0.540664 0.447673
vt 0.515464 0.447673
vt 0.540664 0.478913
vt 0.515464 0.478913
vt 0.540664 0.510153
vt 0.515464 0.510153
vt 0.540664 0.541393
vt 0.515464 0.541393
vt 0.540664 0.572634
vt 0.515464 0.572634
vt 0.540664 0.603874
vt 0.515464 0.603874
vt 0.540664 0.635114
vt 0.515464 0.635114
vt 0.828179 0.697594
vt 0.828179 0.666354
vt 0.838488 0.666354
vt 0.828179 0.635114
vt 0.838488 0.635114
vt 0.828179 0.603874
vt 0.838488 0.603874
vt 0.828179 0.572634
vt 0.838488 0.572634
vt 0.828179 0.541393
vt 0.838488 0.541393
vt 0.828179 0.510153
vt 0.838488 0.510153
vt 0.828179 0.478913
vt 0.838488 0.478913
vt 0.828179 0.447673
vt 0.838488 0.447673
vt 0.828179 0.416432
vt 0.838488 0.416432
vt 0.505155 0.656045
vt 0.515464 0.656045
vt 0.505155 0.624805
vt 0.515464 0.624805
vt 0.505155 0.593564
vt 0.515464 0.593564
vt 0.505155 0.562324
vt 0.515464 0.562324
vt 0.505155 0.531084
vt 0.515464 0.531084
vt 0.505155 0.499844
vt 0.515464 0.499844
vt 0.505155 0.468604
vt 0.515464 0.468604
vt 0.505155 0.437363
vt 0.515464 0.437363
vt 0.505155 0.406123
vt 0.515464 0.406123
vt 0.312402 0.010309
vt 0.312402 0.000000
vt 0.281162 0.010309
vt 0.281162 0.000000
vt 0.249922 0.010309
vt 0.249922 0.000000
vt 0.218682 0.010309
vt 0.218682 0.000000
vt 0.187441 0.010309
vt 0.187441 0.000000
vt 0.156201 0.010309
vt 0.156201 0.000000
vt 0.124961 0.010309
vt 0.124961 0.000000
vt 0.093721 0.010309
vt 0.093721 0.000000
vt 0.062481 0.010309
vt 0.062481 0.000000
vt 0.343643 0.322712
vt 0.343643 0.353952
vt 0.312402 0.353952
vt 0.312402 0.322712
vt 0.281162 0.353952
vt 0.281162 0.322712
vt 0.249922 0.353952
vt 0.249922 0.322712
vt 0.218682 0.353952
vt 0.218682 0.322712
vt 0.187441 0.353952
vt 0.187441 0.322712
vt 0.156201 0.353952
vt 0.156201 0.322712
vt 0.124961 0.353952
vt 0.124961 0.322712
vt 0.093721 0.353952
vt 0.093721 0.322712
vt 0.062480 0.353952
vt 0.062480 0.322712
vt 0.697594 0.031240
vt 0.666354 0.031240
vt 0.666354 0.000000
vt 0.697594 0.000000
vt 0.635114 0.031240
vt 0.635114 0.000000
vt 0.603874 0.031240
vt 0.603874 0.000000
vt 0.572634 0.031240
vt 0.572634 0.000000
vt 0.541393 0.031240
vt 0.541393 0.000000
vt 0.510153 0.031240
vt 0.510153 0.000000
vt 0.478913 0.031240
vt 0.478913 0.000000
vt 0.447673 0.031240
vt 0.447673 0.000000
vt 0.416432 0.031240
vt 0.416432 0.000000
vt 0.416432 0.343643
vt 0.385192 0.343643
vt 0.385192 0.312402
vt 0.416432 0.312402
vt 0.385192 0.281162
vt 0.416432 0.281162
vt 0.385192 0.249922
vt 0.416432 0.249922
vt 0.385192 0.218682
vt 0.416432 0.218682
vt 0.385192 0.187441
vt 0.416432 0.187441
vt 0.385192 0.156201
vt 0.416432 0.156201
vt 0.385192 0.124961
vt 0.416432 0.124961
vt 0.385192 0.093721
vt 0.416432 0.093721
vt 0.385192 0.062480
vt 0.416432 0.062480
vt 0.447673 0.343643
vt 0.447673 0.312402
vt 0.447673 0.281162
vt 0.447673 0.249922
vt 0.447673 0.218682
vt 0.447673 0.187441
vt 0.447673 0.156201
vt 0.447673 0.124961
vt 0.447673 0.093721
vt 0.447673 0.062480
vt 0.478913 0.343643
vt 0.478913 0.312402
vt 0.478913 0.281162
vt 0.478913 0.249922
vt 0.478913 0.218682
vt 0.478913 0.187441
vt 0.478913 0.156201
vt 0.478913 0.124961
vt 0.478913 0.093721
vt 0.478913 0.062480
vt 0.510153 0.343643
vt 0.510153 0.312402
vt 0.510153 0.281162
vt 0.510153 0.249922
vt 0.510153 0.218682
vt 0.510153 0.187441
vt 0.510153 0.156201
vt 0.510153 0.124961
vt 0.510153 0.093721
vt 0.510153 0.062480
vt 0.541393 0.343643
vt 0.541393 0.312402
vt 0.541393 0.281162
vt 0.541393 0.249922
vt 0.541393 0.218682
vt 0.541393 0.187441
vt 0.541393 0.156201
vt 0.541393 0.124961
vt 0.541393 0.093721
vt 0.541393 0.062480
vt 0.572634 0.343643
vt 0.572634 0.312402
vt 0.572634 0.281162
vt 0.572634 0.249922
vt 0.572634 0.218682
vt 0.572634 0.187441
vt 0.572634 0.156201
vt 0.572634 0.124961
vt 0.572634 0.093721
vt 0.572634 0.062480
vt 0.603874 0.343643
vt 0.603874 0.312402
vt 0.603874 0.281162
vt 0.603874 0.249922
vt 0.603874 0.218682
vt 0.603874 0.187441
vt 0.603874 0.156201
vt 0.603874 0.124961
vt 0.603874 0.093721
vt 0.603874 0.062480
vt 0.635114 0.343643
vt 0.635114 0.312402
vt 0.635114 0.281162
vt 0.635114 0.249922
vt 0.635114 0.218682
vt 0.635114 0.187441
vt 0.635114 0.156201
vt 0.635114 0.124961
vt 0.635114 0.093721
vt 0.635114 0.062480
vt 0.666354 0.343643
vt 0.666354 0.312402
vt 0.666354 0.281162
vt 0.666354 0.249922
vt 0.666354 0.218682
vt 0.666354 0.187441
vt 0.666354 0.156201
vt 0.666354 0.124961
vt 0.666354 0.093721
vt 0.666354 0.062480
vt 0.697594 0.343643
vt 0.697594 0.312402
vt 0.697594 0.281162
vt 0.697594 0.249922
vt 0.697594 0.218682
vt 0.697594 0.187441
vt 0.697594 0.156201
vt 0.697594 0.124961
vt 0.697594 0.093721
vt 0.697594 0.062481
vt 0.062481 0.041550
vt 0.031240 0.041550
vt 0.062480 0.072790
vt 0.031240 0.072790
vt 0.062480 0.104030
vt 0.031240 0.104030
vt 0.062480 0.135270
vt 0.031240 0.135270
vt 0.062480 0.166510
vt 0.031240 0.166510
vt 0.062480 0.197751
vt 0.031240 0.197751
vt 0.062480 0.228991
vt 0.031240 0.228991
vt 0.062480 0.260231
vt 0.031240 0.260231
vt 0.062480 0.291471
vt 0.031240 0.291471
vt 0.093721 0.041550
vt 0.093721 0.072790
vt 0.093721 0.104030
vt 0.093721 0.135270
vt 0.093721 0.166510
vt 0.093721 0.197751
vt 0.093721 0.228991
vt 0.093721 0.260231
vt 0.093721 0.291471
vt 0.124961 0.041550
vt 0.124961 0.072790
vt 0.124961 0.104030
vt 0.124961 0.135270
vt 0.124961 0.166510
vt 0.124961 0.197751
vt 0.124961 0.228991
vt 0.124961 0.260231
vt 0.124961 0.291471
vt 0.156201 0.041550
vt 0.156201 0.072790
vt 0.156201 0.104030
vt 0.156201 0.135270
vt 0.156201 0.166510
vt 0.156201 0.197751
vt 0.156201 0.228991
vt 0.156201 0.260231
vt 0.156201 0.291471
vt 0.187441 0.041550
vt 0.187441 0.072790
vt 0.187441 0.104030
vt 0.187441 0.135270
vt 0.187441 0.166510
vt 0.187441 0.197751
vt 0.187441 0.228991
vt 0.187441 0.260231
vt 0.187441 0.291471
vt 0.218682 0.041550
vt 0.218682 0.072790
vt 0.218682 0.104030
vt 0.218682 0.135270
vt 0.218682 0.166510
vt 0.218682 0.197751
vt 0.218682 0.228991
vt 0.218682 0.260231
vt 0.218682 0.291471
vt 0.249922 0.041550
vt 0.249922 0.072790
vt 0.249922 0.104030
vt 0.249922 0.135270
vt 0.249922 0.166510
vt 0.249922 0.197751
vt 0.249922 0.228991
vt 0.249922 0.260231
vt 0.249922 0.291471
vt 0.281162 0.041550
vt 0.281162 0.072790
vt 0.281162 0.104030
vt 0.281162 0.135270
vt 0.281162 0.166510
vt 0.281162 0.197751
vt 0.281162 0.228991
vt 0.281162 0.260231
vt 0.281162 0.291471
vt 0.312402 0.041550
vt 0.312402 0.072790
vt 0.312402 0.104030
vt 0.312402 0.135270
vt 0.312402 0.166510
vt 0.312402 0.197751
vt 0.312402 0.228991
vt 0.312402 0.260231
vt 0.312402 0.291471
vt 0.343643 0.072790
vt 0.343643 0.104030
vt 0.343643 0.135270
vt 0.343643 0.166510
vt 0.343643 0.197751
vt 0.343643 0.228991
vt 0.343643 0.260231
vt 0.343643 0.291471
vt 0.863688 0.343643
vt 0.863688 0.374883
vt 0.838488 0.374883
vt 0.863688 0.406123
vt 0.838488 0.406123
vt 0.863688 0.437363
vt 0.838488 0.437363
vt 0.863688 0.468604
vt 0.838488 0.468604
vt 0.863688 0.499844
vt 0.838488 0.499844
vt 0.863688 0.531084
vt 0.838488 0.531084
vt 0.863688 0.562324
vt 0.838488 0.562324
vt 0.863688 0.593565
vt 0.838488 0.593565
vt 0.863688 0.624805
vt 0.838488 0.624805
vt 0.343643 0.666354
vt 0.353952 0.666354
vt 0.343643 0.635114
vt 0.353952 0.635114
vt 0.343643 0.603874
vt 0.353952 0.603874
vt 0.343643 0.572634
vt 0.353952 0.572634
vt 0.343643 0.541393
vt 0.353952 0.541393
vt 0.343643 0.510153
vt 0.353952 0.510153
vt 0.343643 0.478913
vt 0.353952 0.478913
vt 0.343643 0.447673
vt 0.353952 0.447673
vt 0.343643 0.416432
vt 0.353952 0.416432
vt 0.379152 0.343643
vt 0.379152 0.374883
vt 0.353952 0.374883
vt 0.353952 0.343643
vt 0.379152 0.406123
vt 0.353952 0.406123
vt 0.379152 0.437363
vt 0.353952 0.437363
vt 0.379152 0.468604
vt 0.353952 0.468604
vt 0.379152 0.499844
vt 0.353952 0.499844
vt 0.379152 0.531084
vt 0.353952 0.531084
vt 0.379152 0.562324
vt 0.353952 0.562324
vt 0.379152 0.593564
vt 0.353952 0.593564
vt 0.379152 0.624805
vt 0.353952 0.624805
vt 0.989691 0.656045
vt 1.000000 0.656045
vt 0.989691 0.624805
vt 1.000000 0.624805
vt 0.989691 0.593565
vt 1.000000 0.593565
vt 0.989691 0.562324
vt 1.000000 0.562324
vt 0.989691 0.531084
vt 1.000000 0.531084
vt 0.989691 0.499844
vt 1.000000 0.499844
vt 0.989691 0.468604
vt 1.000000 0.468604
vt 0.989691 0.437363
vt 1.000000 0.437363
vt 0.989691 0.406123
vt 1.000000 0.406123
vt 0.666667 0.697594
vt 0.666667 0.666354
vt 0.666667 0.635114
vt 0.666667 0.603874
vt 0.676976 0.603874
vt 0.666667 0.572634
vt 0.676976 0.572634
vt 0.666667 0.541393
vt 0.676976 0.541393
vt 0.666667 0.510153
vt 0.676976 0.510153
vt 0.666667 0.478913
vt 0.676976 0.478913
vt 0.666667 0.447673
vt 0.676976 0.447673
vt 0.666667 0.416432
vt 0.676976 0.416432
vt 0.353952 0.322712
vt 0.353952 0.353952
vt 0.353952 0.291471
vt 0.353952 0.260231
vt 0.353952 0.228991
vt 0.353952 0.197751
vt 0.353952 0.166510
vt 0.353952 0.135270
vt 0.353952 0.104030
vt 0.353952 0.072790
vt 0.000000 0.041550
vt 0.000000 0.072790
vt 0.000000 0.104030
vt 0.000000 0.135270
vt 0.000000 0.166510
vt 0.000000 0.197751
vt 0.000000 0.228991
vt 0.000000 0.260231
vt 0.000000 0.291471
vt 0.353952 0.312402
vt 0.353952 0.281162
vt 0.353952 0.249922
vt 0.353952 0.218682
vt 0.353952 0.187441
vt 0.353952 0.156201
vt 0.353952 0.124961
vt 0.353952 0.093721
vt 0.353952 0.062480
vt 0.479954 0.656045
vt 0.479954 0.624805
vt 0.454754 0.656045
vt 0.454754 0.624805
vt 0.429553 0.656045
vt 0.429553 0.624805
vt 0.404353 0.656045
vt 0.404353 0.624805
vt 0.479954 0.593564
vt 0.454754 0.593564
vt 0.429553 0.593564
vt 0.404353 0.593564
vt 0.479954 0.562324
vt 0.454754 0.562324
vt 0.429553 0.562324
vt 0.404353 0.562324
vt 0.479954 0.531084
vt 0.454754 0.531084
vt 0.429553 0.531084
vt 0.404353 0.531084
vt 0.479954 0.499844
vt 0.454754 0.499844
vt 0.429553 0.499844
vt 0.404353 0.499844
vt 0.479954 0.468604
vt 0.454754 0.468604
vt 0.429553 0.468604
vt 0.404353 0.468604
vt 0.479954 0.437363
vt 0.454754 0.437363
vt 0.429553 0.437363
vt 0.404353 0.437363
vt 0.479954 0.406123
vt 0.454754 0.406123
vt 0.429553 0.406123
vt 0.404353 0.406123
vt 0.479954 0.374883
vt 0.454754 0.374883
vt 0.429553 0.374883
vt 0.404353 0.374883
vt 0.479954 0.343643
vt 0.454754 0.343643
vt 0.429553 0.343643
vt 0.404353 0.343643
vt 0.964490 0.656045
vt 0.964490 0.624805
vt 0.939290 0.656045
vt 0.939290 0.624805
vt 0.914089 0.656045
vt 0.914089 0.624805
vt 0.888889 0.656045
vt 0.888889 0.624805
vt 0.964490 0.593565
vt 0.939290 0.593565
vt 0.914089 0.593565
vt 0.888889 0.593565
vt 0.964490 0.562324
vt 0.939290 0.562324
vt 0.914089 0.562324
vt 0.888889 0.562324
vt 0.964490 0.531084
vt 0.939290 0.531084
vt 0.914089 0.531084
vt 0.888889 0.531084
vt 0.964490 0.499844
vt 0.939290 0.499844
vt 0.914089 0.499844
vt 0.888889 0.499844
vt 0.964490 0.468604
vt 0.939290 0.468604
vt 0.914089 0.468604
vt 0.888889 0.468604
vt 0.964490 0.437363
vt 0.939290 0.437363
vt 0.914089 0.437363
vt 0.888889 0.437363
vt 0.964490 0.406123
vt 0.939290 0.406123
vt 0.914089 0.406123
vt 0.888889 0.406123
vt 0.964490 0.374883
vt 0.939290 0.374883
vt 0.914089 0.374883
vt 0.888889 0.374883
vt 0.964490 0.343643
vt 0.939290 0.343643
vt 0.914089 0.343643
vt 0.888889 0.343643
vt 0.666667 0.666354
vt 0.641466 0.666354
vt 0.641466 0.635114
vt 0.616266 0.666354
vt 0.616266 0.635114
vt 0.591065 0.666354
vt 0.591065 0.635114
vt 0.565865 0.666354
vt 0.565865 0.635114
vt 0.641466 0.603874
vt 0.616266 0.603874
vt 0.591065 0.603874
vt 0.565865 0.603874
vt 0.641466 0.572634
vt 0.616266 0.572634
vt 0.591065 0.572634
vt 0.565865 0.572634
vt 0.641466 0.541393
vt 0.616266 0.541393
vt 0.591065 0.541393
vt 0.565865 0.541393
vt 0.641466 0.510153
vt 0.616266 0.510153
vt 0.591065 0.510153
vt 0.565865 0.510153
vt 0.666667 0.478913
vt 0.641466 0.478913
vt 0.616266 0.478913
vt 0.591065 0.478913
vt 0.565865 0.478913
vt 0.641466 0.447673
vt 0.616266 0.447673
vt 0.591065 0.447673
vt 0.565865 0.447673
vt 0.666667 0.416432
vt 0.641466 0.416432
vt 0.616266 0.416432
vt 0.591065 0.416432
vt 0.565865 0.416432
vt 0.641466 0.385192
vt 0.616266 0.385192
vt 0.591065 0.385192
vt 0.565865 0.385192
vt 0.641466 0.353952
vt 0.616266 0.353952
vt 0.591065 0.353952
vt 0.565865 0.353952
vt 0.802978 0.666354
vt 0.802978 0.635114
vt 0.777778 0.666354
vt 0.777778 0.635114
vt 0.752577 0.666354
vt 0.752577 0.635114
vt 0.727377 0.666354
vt 0.727377 0.635114
vt 0.802978 0.603874
vt 0.777778 0.603874
vt 0.752577 0.603874
vt 0.727377 0.603874
vt 0.802978 0.572634
vt 0.777778 0.572634
vt 0.752577 0.572634
vt 0.727377 0.572634
vt 0.802978 0.541393
vt 0.777778 0.541393
vt 0.752577 0.541393
vt 0.727377 0.541393
vt 0.802978 0.510153
vt 0.777778 0.510153
vt 0.752577 0.510153
vt 0.727377 0.510153
vt 0.802978 0.478913
vt 0.777778 0.478913
vt 0.752577 0.478913
vt 0.727377 0.478913
vt 0.802978 0.447673
vt 0.777778 0.447673
vt 0.752577 0.447673
vt 0.727377 0.447673
vt 0.802978 0.416432
vt 0.777778 0.416432
vt 0.752577 0.416432
vt 0.727377 0.416432
vt 0.802978 0.385192
vt 0.777778 0.385192
vt 0.752577 0.385192
vt 0.727377 0.385192
vt 0.802978 0.353952
vt 0.777778 0.353952
vt 0.752577 0.353952
vt 0.727377 0.353952
vt 0.964490 0.697595
vt 0.964490 0.687285
vt 0.939290 0.697595
vt 0.939290 0.687285
vt 0.914089 0.697594
vt 0.914089 0.687285
vt 0.888889 0.697594
vt 0.888889 0.687285
vt 0.641466 0.343643
vt 0.616266 0.343643
vt 0.591065 0.343643
vt 0.565865 0.343643
vt 0.802978 0.697594
vt 0.777778 0.697594
vt 0.752577 0.697594
vt 0.727377 0.697594
vt 0.479954 0.697594
vt 0.479954 0.687285
vt 0.454754 0.697594
vt 0.454754 0.687285
vt 0.429553 0.697594
vt 0.429553 0.687285
vt 0.404353 0.697594
vt 0.404353 0.687285
vt 0.641466 0.697594
vt 0.616266 0.697594
vt 0.591065 0.697594
vt 0.565865 0.697594
vt 0.802978 0.343643
vt 0.777778 0.343643
vt 0.752577 0.343643
vt 0.727377 0.343643
s 0
usemtl Material.001
f 386/1/1 117/2/1 3/3/1 46/4/1
f 277/5/2 66/6/2 7/7/2 137/8/2
f 47/9/2 8/10/2 11/11/2 77/12/2
f 136/13/2 6/14/2 16/15/2 166/16/2
f 46/17/3 3/18/3 7/19/3 66/20/3
f 126/21/4 4/22/4 8/23/4 146/24/4
f 76/25/5 10/26/5 12/27/5 86/28/5
f 407/29/5 406/30/5 23/31/5 26/32/5
f 8/23/4 4/22/4 9/33/4 11/34/4
f 6/14/2 12/35/2 18/36/2 16/15/2
f 147/37/6 13/38/6 15/39/6 157/40/6
f 14/41/6 16/42/6 18/43/6 17/44/6
f 526/49/3 396/50/3 20/51/3 96/52/3
f 12/27/5 10/26/5 17/53/5 18/54/5
f 1/55/3 5/56/3 15/57/3 13/58/3
f 96/59/1 20/60/1 23/61/1 106/62/1
f 167/63/1 19/64/1 24/65/1 177/66/1
f 23/61/1 20/60/1 25/67/1 26/68/1
f 576/69/6 416/70/6 25/71/6 186/72/6
f 401/46/3 417/73/3 24/74/3 19/47/3
f 476/75/5 426/76/5 22/77/5 97/78/5
f 426/79/4 387/80/4 21/81/4 22/82/4
f 416/70/6 407/83/6 26/84/6 25/71/6
f 406/30/5 431/85/5 106/86/5 23/31/5
f 431/85/5 436/87/5 105/88/5 106/86/5
f 436/87/5 441/89/5 104/90/5 105/88/5
f 441/89/5 446/91/5 103/92/5 104/90/5
f 446/91/5 451/93/5 102/94/5 103/92/5
f 451/93/5 456/95/5 101/96/5 102/94/5
f 456/95/5 461/97/5 100/98/5 101/96/5
f 461/97/5 466/99/5 99/100/5 100/98/5
f 466/99/5 471/101/5 98/102/5 99/100/5
f 471/101/5 476/75/5 97/78/5 98/102/5
f 21/103/1 87/104/1 97/105/1 22/106/1
f 87/104/1 88/107/1 98/108/1 97/105/1
f 88/107/1 89/109/1 99/110/1 98/108/1
f 89/109/1 90/111/1 100/112/1 99/110/1
f 90/111/1 91/113/1 101/114/1 100/112/1
f 91/113/1 92/115/1 102/116/1 101/114/1
f 92/115/1 93/117/1 103/118/1 102/116/1
f 93/117/1 94/119/1 104/120/1 103/118/1
f 94/119/1 95/121/1 105/122/1 104/120/1
f 95/121/1 96/59/1 106/62/1 105/122/1
f 387/80/3 481/123/3 87/124/3 21/81/3
f 481/123/3 486/125/3 88/126/3 87/124/3
f 486/125/3 491/127/3 89/128/3 88/126/3
f 491/127/3 496/129/3 90/130/3 89/128/3
f 496/129/3 501/131/3 91/132/3 90/130/3
f 501/131/3 506/133/3 92/134/3 91/132/3
f 506/133/3 511/135/3 93/136/3 92/134/3
f 511/135/3 516/137/3 94/138/3 93/136/3
f 516/137/3 521/139/3 95/140/3 94/138/3
f 521/139/3 526/49/3 96/52/3 95/140/3
f 9/141/5 67/142/5 77/143/5 11/84/5
f 67/142/5 68/144/5 78/145/5 77/143/5
f 68/144/5 69/146/5 79/147/5 78/145/5
f 69/146/5 70/148/5 80/149/5 79/147/5
f 70/148/5 71/150/5 81/151/5 80/149/5
f 71/150/5 72/152/5 82/153/5 81/151/5
f 72/152/5 73/154/5 83/155/5 82/153/5
f 73/154/5 74/156/5 84/157/5 83/155/5
f 74/156/5 75/158/5 85/159/5 84/157/5
f 75/158/5 76/25/5 86/28/5 85/159/5
f 1/55/3 37/160/3 57/161/3 5/56/3
f 37/160/3 38/162/3 58/163/3 57/161/3
f 38/162/3 39/164/3 59/165/3 58/163/3
f 39/164/3 40/166/3 60/167/3 59/165/3
f 40/166/3 41/168/3 61/169/3 60/167/3
f 41/168/3 42/170/3 62/171/3 61/169/3
f 42/170/3 43/172/3 63/173/3 62/171/3
f 43/172/3 44/174/3 64/175/3 63/173/3
f 44/174/3 45/176/3 65/177/3 64/175/3
f 45/176/3 46/17/3 66/20/3 65/177/3
f 6/14/2 56/178/2 86/179/2 12/35/2
f 56/178/2 55/180/2 85/181/2 86/179/2
f 55/180/2 54/182/2 84/183/2 85/181/2
f 54/182/2 53/184/2 83/185/2 84/183/2
f 53/184/2 52/186/2 82/187/2 83/185/2
f 52/186/2 51/188/2 81/189/2 82/187/2
f 51/188/2 50/190/2 80/191/2 81/189/2
f 50/190/2 49/192/2 79/193/2 80/191/2
f 49/192/2 48/194/2 78/195/2 79/193/2
f 48/194/2 47/9/2 77/12/2 78/195/2
f 127/196/2 5/197/2 57/198/2 187/199/2
f 187/199/2 57/198/2 58/200/2 197/201/2
f 197/201/2 58/200/2 59/202/2 207/203/2
f 207/203/2 59/202/2 60/204/2 217/205/2
f 217/205/2 60/204/2 61/206/2 227/207/2
f 227/207/2 61/206/2 62/208/2 237/209/2
f 237/209/2 62/208/2 63/210/2 247/211/2
f 247/211/2 63/210/2 64/212/2 257/213/2
f 257/213/2 64/212/2 65/214/2 267/215/2
f 267/215/2 65/214/2 66/6/2 277/5/2
f 107/216/1 296/217/1 37/218/1 1/219/1
f 296/217/1 306/220/1 38/221/1 37/218/1
f 306/220/1 316/222/1 39/223/1 38/221/1
f 316/222/1 326/224/1 40/225/1 39/223/1
f 326/224/1 336/226/1 41/227/1 40/225/1
f 336/226/1 346/228/1 42/229/1 41/227/1
f 346/228/1 356/230/1 43/231/1 42/229/1
f 356/230/1 366/232/1 44/233/1 43/231/1
f 366/232/1 376/234/1 45/235/1 44/233/1
f 376/234/1 386/1/1 46/4/1 45/235/1
f 28/236/1 27/237/1 377/238/1 367/239/1
f 367/239/1 377/238/1 378/240/1 368/241/1
f 368/241/1 378/240/1 379/242/1 369/243/1
f 369/243/1 379/242/1 380/244/1 370/245/1
f 370/245/1 380/244/1 381/246/1 371/247/1
f 371/247/1 381/246/1 382/248/1 372/249/1
f 372/249/1 382/248/1 383/250/1 373/251/1
f 373/251/1 383/250/1 384/252/1 374/253/1
f 374/253/1 384/252/1 385/254/1 375/255/1
f 375/255/1 385/254/1 386/1/1 376/234/1
f 29/256/1 28/236/1 367/239/1 357/257/1
f 357/257/1 367/239/1 368/241/1 358/258/1
f 358/258/1 368/241/1 369/243/1 359/259/1
f 359/259/1 369/243/1 370/245/1 360/260/1
f 360/260/1 370/245/1 371/247/1 361/261/1
f 361/261/1 371/247/1 372/249/1 362/262/1
f 362/262/1 372/249/1 373/251/1 363/263/1
f 363/263/1 373/251/1 374/253/1 364/264/1
f 364/264/1 374/253/1 375/255/1 365/265/1
f 365/265/1 375/255/1 376/234/1 366/232/1
f 30/266/1 29/256/1 357/257/1 347/267/1
f 347/267/1 357/257/1 358/258/1 348/268/1
f 348/268/1 358/258/1 359/259/1 349/269/1
f 349/269/1 359/259/1 360/260/1 350/270/1
f 350/270/1 360/260/1 361/261/1 351/271/1
f 351/271/1 361/261/1 362/262/1 352/272/1
f 352/272/1 362/262/1 363/263/1 353/273/1
f 353/273/1 363/263/1 364/264/1 354/274/1
f 354/274/1 364/264/1 365/265/1 355/275/1
f 355/275/1 365/265/1 366/232/1 356/230/1
f 31/276/1 30/266/1 347/267/1 337/277/1
f 337/277/1 347/267/1 348/268/1 338/278/1
f 338/278/1 348/268/1 349/269/1 339/279/1
f 339/279/1 349/269/1 350/270/1 340/280/1
f 340/280/1 350/270/1 351/271/1 341/281/1
f 341/281/1 351/271/1 352/272/1 342/282/1
f 342/282/1 352/272/1 353/273/1 343/283/1
f 343/283/1 353/273/1 354/274/1 344/284/1
f 344/284/1 354/274/1 355/275/1 345/285/1
f 345/285/1 355/275/1 356/230/1 346/228/1
f 32/286/1 31/276/1 337/277/1 327/287/1
f 327/287/1 337/277/1 338/278/1 328/288/1
f 328/288/1 338/278/1 339/279/1 329/289/1
f 329/289/1 339/279/1 340/280/1 330/290/1
f 330/290/1 340/280/1 341/281/1 331/291/1
f 331/291/1 341/281/1 342/282/1 332/292/1
f 332/292/1 342/282/1 343/283/1 333/293/1
f 333/293/1 343/283/1 344/284/1 334/294/1
f 334/294/1 344/284/1 345/285/1 335/295/1
f 335/295/1 345/285/1 346/228/1 336/226/1
f 33/296/1 32/286/1 327/287/1 317/297/1
f 317/297/1 327/287/1 328/288/1 318/298/1
f 318/298/1 328/288/1 329/289/1 319/299/1
f 319/299/1 329/289/1 330/290/1 320/300/1
f 320/300/1 330/290/1 331/291/1 321/301/1
f 321/301/1 331/291/1 332/292/1 322/302/1
f 322/302/1 332/292/1 333/293/1 323/303/1
f 323/303/1 333/293/1 334/294/1 324/304/1
f 324/304/1 334/294/1 335/295/1 325/305/1
f 325/305/1 335/295/1 336/226/1 326/224/1
f 34/306/1 33/296/1 317/297/1 307/307/1
f 307/307/1 317/297/1 318/298/1 308/308/1
f 308/308/1 318/298/1 319/299/1 309/309/1
f 309/309/1 319/299/1 320/300/1 310/310/1
f 310/310/1 320/300/1 321/301/1 311/311/1
f 311/311/1 321/301/1 322/302/1 312/312/1
f 312/312/1 322/302/1 323/303/1 313/313/1
f 313/313/1 323/303/1 324/304/1 314/314/1
f 314/314/1 324/304/1 325/305/1 315/315/1
f 315/315/1 325/305/1 326/224/1 316/222/1
f 35/316/1 34/306/1 307/307/1 297/317/1
f 297/317/1 307/307/1 308/308/1 298/318/1
f 298/318/1 308/308/1 309/309/1 299/319/1
f 299/319/1 309/309/1 310/310/1 300/320/1
f 300/320/1 310/310/1 311/311/1 301/321/1
f 301/321/1 311/311/1 312/312/1 302/322/1
f 302/322/1 312/312/1 313/313/1 303/323/1
f 303/323/1 313/313/1 314/314/1 304/324/1
f 304/324/1 314/314/1 315/315/1 305/325/1
f 305/325/1 315/315/1 316/222/1 306/220/1
f 36/326/1 35/316/1 297/317/1 287/327/1
f 287/327/1 297/317/1 298/318/1 288/328/1
f 288/328/1 298/318/1 299/319/1 289/329/1
f 289/329/1 299/319/1 300/320/1 290/330/1
f 290/330/1 300/320/1 301/321/1 291/331/1
f 291/331/1 301/321/1 302/322/1 292/332/1
f 292/332/1 302/322/1 303/323/1 293/333/1
f 293/333/1 303/323/1 304/324/1 294/334/1
f 294/334/1 304/324/1 305/325/1 295/335/1
f 295/335/1 305/325/1 306/220/1 296/217/1
f 2/336/1 36/326/1 287/327/1 116/337/1
f 116/337/1 287/327/1 288/328/1 115/338/1
f 115/338/1 288/328/1 289/329/1 114/339/1
f 114/339/1 289/329/1 290/330/1 113/340/1
f 113/340/1 290/330/1 291/331/1 112/341/1
f 112/341/1 291/331/1 292/332/1 111/342/1
f 111/342/1 292/332/1 293/333/1 110/343/1
f 110/343/1 293/333/1 294/334/1 109/344/1
f 109/344/1 294/334/1 295/335/1 108/345/1
f 108/345/1 295/335/1 296/217/1 107/216/1
f 48/194/2 276/346/2 286/347/2 47/9/2
f 276/346/2 275/348/2 285/349/2 286/347/2
f 275/348/2 274/350/2 284/351/2 285/349/2
f 274/350/2 273/352/2 283/353/2 284/351/2
f 273/352/2 272/354/2 282/355/2 283/353/2
f 272/354/2 271/356/2 281/357/2 282/355/2
f 271/356/2 270/358/2 280/359/2 281/357/2
f 270/358/2 269/360/2 279/361/2 280/359/2
f 269/360/2 268/362/2 278/363/2 279/361/2
f 268/362/2 267/215/2 277/5/2 278/363/2
f 49/192/2 266/364/2 276/346/2 48/194/2
f 266/364/2 265/365/2 275/348/2 276/346/2
f 265/365/2 264/366/2 274/350/2 275/348/2
f 264/366/2 263/367/2 273/352/2 274/350/2
f 263/367/2 262/368/2 272/354/2 273/352/2
f 262/368/2 261/369/2 271/356/2 272/354/2
f 261/369/2 260/370/2 270/358/2 271/356/2
f 260/370/2 259/371/2 269/360/2 270/358/2
f 259/371/2 258/372/2 268/362/2 269/360/2
f 258/372/2 257/213/2 267/215/2 268/362/2
f 50/190/2 256/373/2 266/364/2 49/192/2
f 256/373/2 255/374/2 265/365/2 266/364/2
f 255/374/2 254/375/2 264/366/2 265/365/2
f 254/375/2 253/376/2 263/367/2 264/366/2
f 253/376/2 252/377/2 262/368/2 263/367/2
f 252/377/2 251/378/2 261/369/2 262/368/2
f 251/378/2 250/379/2 260/370/2 261/369/2
f 250/379/2 249/380/2 259/371/2 260/370/2
f 249/380/2 248/381/2 258/372/2 259/371/2
f 248/381/2 247/211/2 257/213/2 258/372/2
f 51/188/2 246/382/2 256/373/2 50/190/2
f 246/382/2 245/383/2 255/374/2 256/373/2
f 245/383/2 244/384/2 254/375/2 255/374/2
f 244/384/2 243/385/2 253/376/2 254/375/2
f 243/385/2 242/386/2 252/377/2 253/376/2
f 242/386/2 241/387/2 251/378/2 252/377/2
f 241/387/2 240/388/2 250/379/2 251/378/2
f 240/388/2 239/389/2 249/380/2 250/379/2
f 239/389/2 238/390/2 248/381/2 249/380/2
f 238/390/2 237/209/2 247/211/2 248/381/2
f 52/186/2 236/391/2 246/382/2 51/188/2
f 236/391/2 235/392/2 245/383/2 246/382/2
f 235/392/2 234/393/2 244/384/2 245/383/2
f 234/393/2 233/394/2 243/385/2 244/384/2
f 233/394/2 232/395/2 242/386/2 243/385/2
f 232/395/2 231/396/2 241/387/2 242/386/2
f 231/396/2 230/397/2 240/388/2 241/387/2
f 230/397/2 229/398/2 239/389/2 240/388/2
f 229/398/2 228/399/2 238/390/2 239/389/2
f 228/399/2 227/207/2 237/209/2 238/390/2
f 53/184/2 226/400/2 236/391/2 52/186/2
f 226/400/2 225/401/2 235/392/2 236/391/2
f 225/401/2 224/402/2 234/393/2 235/392/2
f 224/402/2 223/403/2 233/394/2 234/393/2
f 223/403/2 222/404/2 232/395/2 233/394/2
f 222/404/2 221/405/2 231/396/2 232/395/2
f 221/405/2 220/406/2 230/397/2 231/396/2
f 220/406/2 219/407/2 229/398/2 230/397/2
f 219/407/2 218/408/2 228/399/2 229/398/2
f 218/408/2 217/205/2 227/207/2 228/399/2
f 54/182/2 216/409/2 226/400/2 53/184/2
f 216/409/2 215/410/2 225/401/2 226/400/2
f 215/410/2 214/411/2 224/402/2 225/401/2
f 214/411/2 213/412/2 223/403/2 224/402/2
f 213/412/2 212/413/2 222/404/2 223/403/2
f 212/413/2 211/414/2 221/405/2 222/404/2
f 211/414/2 210/415/2 220/406/2 221/405/2
f 210/415/2 209/416/2 219/407/2 220/406/2
f 209/416/2 208/417/2 218/408/2 219/407/2
f 208/417/2 207/203/2 217/205/2 218/408/2
f 55/180/2 206/418/2 216/409/2 54/182/2
f 206/418/2 205/419/2 215/410/2 216/409/2
f 205/419/2 204/420/2 214/411/2 215/410/2
f 204/420/2 203/421/2 213/412/2 214/411/2
f 203/421/2 202/422/2 212/413/2 213/412/2
f 202/422/2 201/423/2 211/414/2 212/413/2
f 201/423/2 200/424/2 210/415/2 211/414/2
f 200/424/2 199/425/2 209/416/2 210/415/2
f 199/425/2 198/426/2 208/417/2 209/416/2
f 198/426/2 197/201/2 207/203/2 208/417/2
f 56/178/2 196/427/2 206/418/2 55/180/2
f 196/427/2 195/428/2 205/419/2 206/418/2
f 195/428/2 194/429/2 204/420/2 205/419/2
f 194/429/2 193/430/2 203/421/2 204/420/2
f 193/430/2 192/431/2 202/422/2 203/421/2
f 192/431/2 191/432/2 201/423/2 202/422/2
f 191/432/2 190/433/2 200/424/2 201/423/2
f 190/433/2 189/434/2 199/425/2 200/424/2
f 189/434/2 188/435/2 198/426/2 199/425/2
f 188/435/2 187/199/2 197/201/2 198/426/2
f 6/14/2 136/13/2 196/427/2 56/178/2
f 136/13/2 135/436/2 195/428/2 196/427/2
f 135/436/2 134/437/2 194/429/2 195/428/2
f 134/437/2 133/438/2 193/430/2 194/429/2
f 133/438/2 132/439/2 192/431/2 193/430/2
f 132/439/2 131/440/2 191/432/2 192/431/2
f 131/440/2 130/441/2 190/433/2 191/432/2
f 130/441/2 129/442/2 189/434/2 190/433/2
f 129/442/2 128/443/2 188/435/2 189/434/2
f 128/443/2 127/196/2 187/199/2 188/435/2
f 417/444/6 531/445/6 177/446/6 24/54/6
f 531/445/6 536/447/6 178/448/6 177/446/6
f 536/447/6 541/449/6 179/450/6 178/448/6
f 541/449/6 546/451/6 180/452/6 179/450/6
f 546/451/6 551/453/6 181/454/6 180/452/6
f 551/453/6 556/455/6 182/456/6 181/454/6
f 556/455/6 561/457/6 183/458/6 182/456/6
f 561/457/6 566/459/6 184/460/6 183/458/6
f 566/459/6 571/461/6 185/462/6 184/460/6
f 571/461/6 576/69/6 186/72/6 185/462/6
f 20/60/1 176/463/1 186/464/1 25/67/1
f 176/463/1 175/465/1 185/466/1 186/464/1
f 175/465/1 174/467/1 184/468/1 185/466/1
f 174/467/1 173/469/1 183/470/1 184/468/1
f 173/469/1 172/471/1 182/472/1 183/470/1
f 172/471/1 171/473/1 181/474/1 182/472/1
f 171/473/1 170/475/1 180/476/1 181/474/1
f 170/475/1 169/477/1 179/478/1 180/476/1
f 169/477/1 168/479/1 178/480/1 179/478/1
f 168/479/1 167/63/1 177/66/1 178/480/1
f 14/41/6 156/501/6 166/502/6 16/42/6
f 156/501/6 155/503/6 165/504/6 166/502/6
f 155/503/6 154/505/6 164/506/6 165/504/6
f 154/505/6 153/507/6 163/508/6 164/506/6
f 153/507/6 152/509/6 162/510/6 163/508/6
f 152/509/6 151/511/6 161/512/6 162/510/6
f 151/511/6 150/513/6 160/514/6 161/512/6
f 150/513/6 149/515/6 159/516/6 160/514/6
f 149/515/6 148/517/6 158/518/6 159/516/6
f 148/517/6 147/37/6 157/40/6 158/518/6
f 3/519/4 117/520/4 137/78/4 7/77/4
f 117/520/4 118/521/4 138/102/4 137/78/4
f 118/521/4 119/522/4 139/523/4 138/102/4
f 119/522/4 120/524/4 140/525/4 139/523/4
f 120/524/4 121/526/4 141/527/4 140/525/4
f 121/526/4 122/528/4 142/529/4 141/527/4
f 122/528/4 123/530/4 143/531/4 142/529/4
f 123/530/4 124/532/4 144/533/4 143/531/4
f 124/532/4 125/534/4 145/535/4 144/533/4
f 125/534/4 126/21/4 146/24/4 145/535/4
f 5/197/2 127/196/2 157/536/2 15/537/2
f 127/196/2 128/443/2 158/538/2 157/536/2
f 128/443/2 129/442/2 159/539/2 158/538/2
f 129/442/2 130/441/2 160/540/2 159/539/2
f 130/441/2 131/440/2 161/541/2 160/540/2
f 131/440/2 132/439/2 162/542/2 161/541/2
f 132/439/2 133/438/2 163/543/2 162/542/2
f 133/438/2 134/437/2 164/544/2 163/543/2
f 134/437/2 135/436/2 165/545/2 164/544/2
f 135/436/2 136/13/2 166/16/2 165/545/2
f 47/9/2 286/347/2 146/546/2 8/10/2
f 286/347/2 285/349/2 145/547/2 146/546/2
f 285/349/2 284/351/2 144/548/2 145/547/2
f 284/351/2 283/353/2 143/549/2 144/548/2
f 283/353/2 282/355/2 142/550/2 143/549/2
f 282/355/2 281/357/2 141/551/2 142/550/2
f 281/357/2 280/359/2 140/552/2 141/551/2
f 280/359/2 279/361/2 139/553/2 140/552/2
f 279/361/2 278/363/2 138/554/2 139/553/2
f 278/363/2 277/5/2 137/8/2 138/554/2
f 27/237/1 4/484/1 126/555/1 377/238/1
f 377/238/1 126/555/1 125/556/1 378/240/1
f 378/240/1 125/556/1 124/557/1 379/242/1
f 379/242/1 124/557/1 123/558/1 380/244/1
f 380/244/1 123/558/1 122/559/1 381/246/1
f 381/246/1 122/559/1 121/560/1 382/248/1
f 382/248/1 121/560/1 120/561/1 383/250/1
f 383/250/1 120/561/1 119/562/1 384/252/1
f 384/252/1 119/562/1 118/563/1 385/254/1
f 385/254/1 118/563/1 117/2/1 386/1/1
f 155/503/6 156/501/6 572/608/6 567/609/6
f 567/609/6 572/608/6 573/610/6 568/611/6
f 568/611/6 573/610/6 574/612/6 569/613/6
f 569/613/6 574/612/6 575/614/6 570/615/6
f 570/615/6 575/614/6 576/69/6 571/461/6
f 154/505/6 155/503/6 567/609/6 562/616/6
f 562/616/6 567/609/6 568/611/6 563/617/6
f 563/617/6 568/611/6 569/613/6 564/618/6
f 564/618/6 569/613/6 570/615/6 565/619/6
f 565/619/6 570/615/6 571/461/6 566/459/6
f 153/507/6 154/505/6 562/616/6 557/620/6
f 557/620/6 562/616/6 563/617/6 558/621/6
f 558/621/6 563/617/6 564/618/6 559/622/6
f 559/622/6 564/618/6 565/619/6 560/623/6
f 560/623/6 565/619/6 566/459/6 561/457/6
f 152/509/6 153/507/6 557/620/6 552/624/6
f 552/624/6 557/620/6 558/621/6 553/625/6
f 553/625/6 558/621/6 559/622/6 554/626/6
f 554/626/6 559/622/6 560/623/6 555/627/6
f 555/627/6 560/623/6 561/457/6 556/455/6
f 151/511/6 152/509/6 552/624/6 547/628/6
f 547/628/6 552/624/6 553/625/6 548/629/6
f 548/629/6 553/625/6 554/626/6 549/630/6
f 549/630/6 554/626/6 555/627/6 550/631/6
f 550/631/6 555/627/6 556/455/6 551/453/6
f 150/513/6 151/511/6 547/628/6 542/632/6
f 542/632/6 547/628/6 548/629/6 543/633/6
f 543/633/6 548/629/6 549/630/6 544/634/6
f 544/634/6 549/630/6 550/631/6 545/635/6
f 545/635/6 550/631/6 551/453/6 546/451/6
f 149/515/6 150/513/6 542/632/6 537/636/6
f 537/636/6 542/632/6 543/633/6 538/637/6
f 538/637/6 543/633/6 544/634/6 539/638/6
f 539/638/6 544/634/6 545/635/6 540/639/6
f 540/639/6 545/635/6 546/451/6 541/449/6
f 148/517/6 149/515/6 537/636/6 532/640/6
f 532/640/6 537/636/6 538/637/6 533/641/6
f 533/641/6 538/637/6 539/638/6 534/642/6
f 534/642/6 539/638/6 540/639/6 535/643/6
f 535/643/6 540/639/6 541/449/6 536/447/6
f 147/37/6 148/517/6 532/640/6 527/644/6
f 527/644/6 532/640/6 533/641/6 528/645/6
f 528/645/6 533/641/6 534/642/6 529/646/6
f 529/646/6 534/642/6 535/643/6 530/647/6
f 530/647/6 535/643/6 536/447/6 531/445/6
f 13/38/6 147/37/6 527/644/6 421/648/6
f 421/648/6 527/644/6 528/645/6 420/649/6
f 420/649/6 528/645/6 529/646/6 419/650/6
f 419/650/6 529/646/6 530/647/6 418/651/6
f 418/651/6 530/647/6 531/445/6 417/444/6
f 35/521/3 36/652/3 522/653/3 517/654/3
f 517/654/3 522/653/3 523/655/3 518/656/3
f 518/656/3 523/655/3 524/657/3 519/658/3
f 519/658/3 524/657/3 525/659/3 520/660/3
f 520/660/3 525/659/3 526/49/3 521/139/3
f 34/522/3 35/521/3 517/654/3 512/661/3
f 512/661/3 517/654/3 518/656/3 513/662/3
f 513/662/3 518/656/3 519/658/3 514/663/3
f 514/663/3 519/658/3 520/660/3 515/664/3
f 515/664/3 520/660/3 521/139/3 516/137/3
f 33/524/3 34/522/3 512/661/3 507/665/3
f 507/665/3 512/661/3 513/662/3 508/666/3
f 508/666/3 513/662/3 514/663/3 509/667/3
f 509/667/3 514/663/3 515/664/3 510/668/3
f 510/668/3 515/664/3 516/137/3 511/135/3
f 32/526/3 33/524/3 507/665/3 502/669/3
f 502/669/3 507/665/3 508/666/3 503/670/3
f 503/670/3 508/666/3 509/667/3 504/671/3
f 504/671/3 509/667/3 510/668/3 505/672/3
f 505/672/3 510/668/3 511/135/3 506/133/3
f 31/528/3 32/526/3 502/669/3 497/673/3
f 497/673/3 502/669/3 503/670/3 498/674/3
f 498/674/3 503/670/3 504/671/3 499/675/3
f 499/675/3 504/671/3 505/672/3 500/676/3
f 500/676/3 505/672/3 506/133/3 501/131/3
f 30/677/3 31/528/3 497/673/3 492/678/3
f 492/678/3 497/673/3 498/674/3 493/679/3
f 493/679/3 498/674/3 499/675/3 494/680/3
f 494/680/3 499/675/3 500/676/3 495/681/3
f 495/681/3 500/676/3 501/131/3 496/129/3
f 29/532/3 30/677/3 492/678/3 487/682/3
f 487/682/3 492/678/3 493/679/3 488/683/3
f 488/683/3 493/679/3 494/680/3 489/684/3
f 489/684/3 494/680/3 495/681/3 490/685/3
f 490/685/3 495/681/3 496/129/3 491/127/3
f 28/686/3 29/532/3 487/682/3 482/687/3
f 482/687/3 487/682/3 488/683/3 483/688/3
f 483/688/3 488/683/3 489/684/3 484/689/3
f 484/689/3 489/684/3 490/685/3 485/690/3
f 485/690/3 490/685/3 491/127/3 486/125/3
f 27/21/3 28/686/3 482/687/3 477/691/3
f 477/691/3 482/687/3 483/688/3 478/692/3
f 478/692/3 483/688/3 484/689/3 479/693/3
f 479/693/3 484/689/3 485/690/3 480/694/3
f 480/694/3 485/690/3 486/125/3 481/123/3
f 4/22/3 27/21/3 477/691/3 391/695/3
f 391/695/3 477/691/3 478/692/3 390/696/3
f 390/696/3 478/692/3 479/693/3 389/697/3
f 389/697/3 479/693/3 480/694/3 388/698/3
f 388/698/3 480/694/3 481/123/3 387/80/3
f 68/144/5 67/142/5 472/699/5 467/700/5
f 467/700/5 472/699/5 473/701/5 468/702/5
f 468/702/5 473/701/5 474/703/5 469/704/5
f 469/704/5 474/703/5 475/705/5 470/706/5
f 470/706/5 475/705/5 476/75/5 471/101/5
f 69/146/5 68/144/5 467/700/5 462/707/5
f 462/707/5 467/700/5 468/702/5 463/708/5
f 463/708/5 468/702/5 469/704/5 464/709/5
f 464/709/5 469/704/5 470/706/5 465/710/5
f 465/710/5 470/706/5 471/101/5 466/99/5
f 70/148/5 69/146/5 462/707/5 457/711/5
f 457/711/5 462/707/5 463/708/5 458/712/5
f 458/712/5 463/708/5 464/709/5 459/713/5
f 459/713/5 464/709/5 465/710/5 460/714/5
f 460/714/5 465/710/5 466/99/5 461/97/5
f 71/150/5 70/148/5 457/711/5 452/715/5
f 452/715/5 457/711/5 458/712/5 453/716/5
f 453/716/5 458/712/5 459/713/5 454/717/5
f 454/717/5 459/713/5 460/714/5 455/718/5
f 455/718/5 460/714/5 461/97/5 456/95/5
f 72/152/5 71/150/5 452/715/5 447/719/5
f 447/719/5 452/715/5 453/716/5 448/720/5
f 448/720/5 453/716/5 454/717/5 449/721/5
f 449/721/5 454/717/5 455/718/5 450/722/5
f 450/722/5 455/718/5 456/95/5 451/93/5
f 73/154/5 72/152/5 447/719/5 442/723/5
f 442/723/5 447/719/5 448/720/5 443/724/5
f 443/724/5 448/720/5 449/721/5 444/725/5
f 444/725/5 449/721/5 450/722/5 445/726/5
f 445/726/5 450/722/5 451/93/5 446/91/5
f 74/156/5 73/154/5 442/723/5 437/727/5
f 437/727/5 442/723/5 443/724/5 438/728/5
f 438/728/5 443/724/5 444/725/5 439/729/5
f 439/729/5 444/725/5 445/726/5 440/730/5
f 440/730/5 445/726/5 446/91/5 441/89/5
f 75/158/5 74/156/5 437/727/5 432/731/5
f 432/731/5 437/727/5 438/728/5 433/732/5
f 433/732/5 438/728/5 439/729/5 434/733/5
f 434/733/5 439/729/5 440/730/5 435/734/5
f 435/734/5 440/730/5 441/89/5 436/87/5
f 76/25/5 75/158/5 432/731/5 427/735/5
f 427/735/5 432/731/5 433/732/5 428/736/5
f 428/736/5 433/732/5 434/733/5 429/737/5
f 429/737/5 434/733/5 435/734/5 430/738/5
f 430/738/5 435/734/5 436/87/5 431/85/5
f 10/26/5 76/25/5 427/735/5 402/739/5
f 402/739/5 427/735/5 428/736/5 403/740/5
f 403/740/5 428/736/5 429/737/5 404/741/5
f 404/741/5 429/737/5 430/738/5 405/742/5
f 405/742/5 430/738/5 431/85/5 406/30/5
f 14/41/6 17/44/6 411/743/6 412/744/6
f 412/744/6 411/743/6 410/745/6 413/746/6
f 413/746/6 410/745/6 409/747/6 414/748/6
f 414/748/6 409/747/6 408/749/6 415/750/6
f 415/750/6 408/749/6 407/83/6 416/70/6
f 9/33/4 4/22/4 391/695/4 422/751/4
f 422/751/4 391/695/4 390/696/4 423/752/4
f 423/752/4 390/696/4 389/697/4 424/753/4
f 424/753/4 389/697/4 388/698/4 425/754/4
f 425/754/4 388/698/4 387/80/4 426/79/4
f 67/142/5 9/141/5 422/755/5 472/699/5
f 472/699/5 422/755/5 423/756/5 473/701/5
f 473/701/5 423/756/5 424/757/5 474/703/5
f 474/703/5 424/757/5 425/758/5 475/705/5
f 475/705/5 425/758/5 426/76/5 476/75/5
f 1/55/3 13/58/3 421/759/3 397/760/3
f 397/760/3 421/759/3 420/761/3 398/762/3
f 398/762/3 420/761/3 419/763/3 399/764/3
f 399/764/3 419/763/3 418/765/3 400/766/3
f 400/766/3 418/765/3 417/73/3 401/46/3
f 156/501/6 14/41/6 412/744/6 572/608/6
f 572/608/6 412/744/6 413/746/6 573/610/6
f 573/610/6 413/746/6 414/748/6 574/612/6
f 574/612/6 414/748/6 415/750/6 575/614/6
f 575/614/6 415/750/6 416/70/6 576/69/6
f 36/652/3 2/519/3 392/767/3 522/653/3
f 522/653/3 392/767/3 393/768/3 523/655/3
f 523/655/3 393/768/3 394/769/3 524/657/3
f 524/657/3 394/769/3 395/770/3 525/659/3
f 525/659/3 395/770/3 396/50/3 526/49/3
f 17/53/5 10/26/5 402/739/5 411/771/5
f 411/771/5 402/739/5 403/740/5 410/772/5
f 410/772/5 403/740/5 404/741/5 409/773/5
f 409/773/5 404/741/5 405/742/5 408/774/5
f 408/774/5 405/742/5 406/30/5 407/29/5
usemtl Material.002
f 626/45/4 401/46/4 19/47/4 167/48/4
f 396/481/4 581/482/4 176/483/4 20/484/4
f 581/482/4 586/485/4 175/486/4 176/483/4
f 586/485/4 591/487/4 174/488/4 175/486/4
f 591/487/4 596/489/4 173/490/4 174/488/4
f 596/489/4 601/491/4 172/492/4 173/490/4
f 601/491/4 606/493/4 171/494/4 172/492/4
f 606/493/4 611/495/4 170/496/4 171/494/4
f 611/495/4 616/497/4 169/498/4 170/496/4
f 616/497/4 621/499/4 168/500/4 169/498/4
f 621/499/4 626/45/4 167/48/4 168/500/4
f 108/162/4 107/160/4 622/564/4 617/565/4
f 617/565/4 622/564/4 623/566/4 618/567/4
f 618/567/4 623/566/4 624/568/4 619/569/4
f 619/569/4 624/568/4 625/570/4 620/571/4
f 620/571/4 625/570/4 626/45/4 621/499/4
f 109/164/4 108/162/4 617/565/4 612/572/4
f 612/572/4 617/565/4 618/567/4 613/573/4
f 613/573/4 618/567/4 619/569/4 614/574/4
f 614/574/4 619/569/4 620/571/4 615/575/4
f 615/575/4 620/571/4 621/499/4 616/497/4
f 110/166/4 109/164/4 612/572/4 607/576/4
f 607/576/4 612/572/4 613/573/4 608/577/4
f 608/577/4 613/573/4 614/574/4 609/578/4
f 609/578/4 614/574/4 615/575/4 610/579/4
f 610/579/4 615/575/4 616/497/4 611/495/4
f 111/168/4 110/166/4 607/576/4 602/580/4
f 602/580/4 607/576/4 608/577/4 603/581/4
f 603/581/4 608/577/4 609/578/4 604/582/4
f 604/582/4 609/578/4 610/579/4 605/583/4
f 605/583/4 610/579/4 611/495/4 606/493/4
f 112/170/4 111/168/4 602/580/4 597/584/4
f 597/584/4 602/580/4 603/581/4 598/585/4
f 598/585/4 603/581/4 604/582/4 599/586/4
f 599/586/4 604/582/4 605/583/4 600/587/4
f 600/587/4 605/583/4 606/493/4 601/491/4
f 113/172/4 112/170/4 597/584/4 592/588/4
f 592/588/4 597/584/4 598/585/4 593/589/4
f 593/589/4 598/585/4 599/586/4 594/590/4
f 594/590/4 599/586/4 600/587/4 595/591/4
f 595/591/4 600/587/4 601/491/4 596/489/4
f 114/174/4 113/172/4 592/588/4 587/592/4
f 587/592/4 592/588/4 593/589/4 588/593/4
f 588/593/4 593/589/4 594/590/4 589/594/4
f 589/594/4 594/590/4 595/591/4 590/595/4
f 590/595/4 595/591/4 596/489/4 591/487/4
f 115/176/4 114/174/4 587/592/4 582/596/4
f 582/596/4 587/592/4 588/593/4 583/597/4
f 583/597/4 588/593/4 589/594/4 584/598/4
f 584/598/4 589/594/4 590/595/4 585/599/4
f 585/599/4 590/595/4 591/487/4 586/485/4
f 116/17/4 115/176/4 582/596/4 577/600/4
f 577/600/4 582/596/4 583/597/4 578/601/4
f 578/601/4 583/597/4 584/598/4 579/602/4
f 579/602/4 584/598/4 585/599/4 580/603/4
f 580/603/4 585/599/4 586/485/4 581/482/4
f 2/18/4 116/17/4 577/600/4 392/604/4
f 392/604/4 577/600/4 578/601/4 393/605/4
f 393/605/4 578/601/4 579/602/4 394/606/4
f 394/606/4 579/602/4 580/603/4 395/607/4
f 395/607/4 580/603/4 581/482/4 396/481/4
f 107/160/4 1/55/4 397/760/4 622/564/4
f 622/564/4 397/760/4 398/762/4 623/566/4
f 623/566/4 398/762/4 399/764/4 624/568/4
f 624/568/4 399/764/4 400/766/4 625/570/4
f 625/570/4 400/766/4 401/46/4 626/45/4
