# Blender 5.2.2 LTS
# www.blender.org
mtllib base.mtl
o Plane.001
v -1.000000 0.000000 0.150000
v -1.000000 1.000000 0.150000
v 0.000000 1.000000 0.150000
v 0.000000 0.000000 0.150000
v -1.000000 0.000000 0.400000
v 0.000000 0.000000 0.400000
v 0.000000 1.000000 0.400000
v -1.000000 1.000000 0.400000
v -0.666667 0.000000 0.150000
v -0.333333 0.000000 0.150000
v -0.333333 1.000000 0.150000
v -0.666667 1.000000 0.150000
v -1.000000 0.333333 0.150000
v -1.000000 0.666667 0.150000
v 0.000000 0.333333 0.150000
v 0.000000 0.666667 0.150000
v -0.666667 0.000000 0.400000
v -0.333333 0.000000 0.400000
v -0.333333 1.000000 0.400000
v -0.666667 1.000000 0.400000
v -1.000000 0.333333 0.400000
v -1.000000 0.666667 0.400000
v 0.000000 0.333333 0.400000
v 0.000000 0.666667 0.400000
v -1.000000 0.000000 0.233333
v -1.000000 0.000000 0.316667
v -1.000000 1.000000 0.316667
v -1.000000 1.000000 0.233333
v 0.000000 0.000000 0.233333
v 0.000000 0.000000 0.316667
v 0.000000 1.000000 0.233333
v 0.000000 1.000000 0.316667
v -0.333333 1.000000 0.233333
v -0.333333 1.000000 0.316667
v -0.666667 1.000000 0.233333
v -0.666667 1.000000 0.316667
v 0.000000 0.333333 0.233333
v 0.000000 0.333333 0.316667
v 0.000000 0.666667 0.233333
v 0.000000 0.666667 0.316667
v -0.666667 0.000000 0.233333
v -0.666667 0.000000 0.316667
v -0.333333 0.000000 0.233333
v -0.333333 0.000000 0.316667
v -1.000000 0.666667 0.233333
v -1.000000 0.666667 0.316667
v -1.000000 0.333333 0.233333
v -1.000000 0.333333 0.316667
v -0.333333 0.333333 0.400000
v -0.666667 0.333333 0.400000
v -0.333333 0.666667 0.400000
v -0.666667 0.666667 0.400000
v -0.333333 0.333333 0.150000
v -0.333333 0.666667 0.150000
v -0.666667 0.333333 0.150000
v -0.666667 0.666667 0.150000
vn -0.0000 -0.0000 -1.0000
vn -0.0000 -0.0000 1.0000
vn -1.0000 -0.0000 -0.0000
vn -0.0000 -1.0000 -0.0000
vn 1.0000 -0.0000 -0.0000
vn -0.0000 1.0000 -0.0000
vt 0.000000 0.000000
s 0
usemtl Material.003
f 56/1/1 14/1/1 2/1/1 12/1/1
f 52/1/2 20/1/2 8/1/2 22/1/2
f 48/1/3 26/1/3 5/1/3 21/1/3
f 44/1/4 30/1/4 6/1/4 18/1/4
f 40/1/5 32/1/5 7/1/5 24/1/5
f 36/1/6 27/1/6 8/1/6 20/1/6
f 32/1/6 34/1/6 19/1/6 7/1/6
f 34/1/6 36/1/6 20/1/6 19/1/6
f 3/1/6 11/1/6 33/1/6 31/1/6
f 31/1/6 33/1/6 34/1/6 32/1/6
f 11/1/6 12/1/6 35/1/6 33/1/6
f 33/1/6 35/1/6 36/1/6 34/1/6
f 12/1/6 2/1/6 28/1/6 35/1/6
f 35/1/6 28/1/6 27/1/6 36/1/6
f 30/1/5 38/1/5 23/1/5 6/1/5
f 38/1/5 40/1/5 24/1/5 23/1/5
f 4/1/5 15/1/5 37/1/5 29/1/5
f 29/1/5 37/1/5 38/1/5 30/1/5
f 15/1/5 16/1/5 39/1/5 37/1/5
f 37/1/5 39/1/5 40/1/5 38/1/5
f 16/1/5 3/1/5 31/1/5 39/1/5
f 39/1/5 31/1/5 32/1/5 40/1/5
f 26/1/4 42/1/4 17/1/4 5/1/4
f 42/1/4 44/1/4 18/1/4 17/1/4
f 1/1/4 9/1/4 41/1/4 25/1/4
f 25/1/4 41/1/4 42/1/4 26/1/4
f 9/1/4 10/1/4 43/1/4 41/1/4
f 41/1/4 43/1/4 44/1/4 42/1/4
f 10/1/4 4/1/4 29/1/4 43/1/4
f 43/1/4 29/1/4 30/1/4 44/1/4
f 27/1/3 46/1/3 22/1/3 8/1/3
f 46/1/3 48/1/3 21/1/3 22/1/3
f 2/1/3 14/1/3 45/1/3 28/1/3
f 28/1/3 45/1/3 46/1/3 27/1/3
f 14/1/3 13/1/3 47/1/3 45/1/3
f 45/1/3 47/1/3 48/1/3 46/1/3
f 13/1/3 1/1/3 25/1/3 47/1/3
f 47/1/3 25/1/3 26/1/3 48/1/3
f 17/1/2 50/1/2 21/1/2 5/1/2
f 50/1/2 52/1/2 22/1/2 21/1/2
f 6/1/2 23/1/2 49/1/2 18/1/2
f 18/1/2 49/1/2 50/1/2 17/1/2
f 23/1/2 24/1/2 51/1/2 49/1/2
f 49/1/2 51/1/2 52/1/2 50/1/2
f 24/1/2 7/1/2 19/1/2 51/1/2
f 51/1/2 19/1/2 20/1/2 52/1/2
f 16/1/1 54/1/1 11/1/1 3/1/1
f 54/1/1 56/1/1 12/1/1 11/1/1
f 4/1/1 10/1/1 53/1/1 15/1/1
f 15/1/1 53/1/1 54/1/1 16/1/1
f 10/1/1 9/1/1 55/1/1 53/1/1
f 53/1/1 55/1/1 56/1/1 54/1/1
f 9/1/1 1/1/1 13/1/1 55/1/1
f 55/1/1 13/1/1 14/1/1 56/1/1
